<svg width="12" height="7" viewBox="0 0 12 7" fill="none" xmlns="http://www.w3.org/2000/svg">
<path d="M0.640039 0.0199585C0.398219 0.0763049 0.177528 0.261779 0.067183 0.498904C0.0131843 0.61864 0.00144543 0.670291 0.0037932 0.839331C0.0037932 1.21497 -0.221593 0.961414 2.80234 3.99004C4.62655 5.8166 5.52575 6.70171 5.59853 6.74163C5.76992 6.83319 5.96948 6.86606 6.14791 6.82849C6.22773 6.81206 6.34277 6.77215 6.40147 6.74163C6.47425 6.70171 7.37345 5.8166 9.19766 3.99004C12.2216 0.961414 11.9962 1.21497 11.9962 0.839331C11.9962 0.670291 11.9868 0.61864 11.9305 0.494208C11.7333 0.0622187 11.2074 -0.120908 10.7777 0.0927396C10.7167 0.12326 9.86678 0.956719 8.34308 2.47807L6 4.8188L3.65692 2.47807C2.12618 0.949676 1.28333 0.12326 1.22229 0.0927396C1.04386 0.00587177 0.823165 -0.0223012 0.640039 0.0199585Z" fill="url(#paint0_linear_0_7)"/>
<defs>
<linearGradient id="paint0_linear_0_7" x1="6.18338" y1="8.21238" x2="6.18338" y2="-2.05233" gradientUnits="userSpaceOnUse">
<stop stop-color="#B2FFDA"/>
<stop offset="1" stop-color="#2F80ED"/>
</linearGradient>
</defs>
</svg>
